<svg xmlns="http://www.w3.org/2000/svg" xmlns:xlink="http://www.w3.org/1999/xlink" width="1027.647" height="672" font-family="Consolas, Menlo, 'Bitstream Vera Sans Mono', monospace, 'Powerline Symbols'" font-size="14"><style>.br{font-weight:700}</style><rect width="100%" height="100%" style="fill:#121314" rx="4" ry="4"/><svg x="8.423" y="9.333" class="default-text-fill"><g style="shape-rendering:optimizeSpeed"><rect width="993.953" height="18.667" x="16.847" y="317.333" style="fill:#d7d7ff"/><rect width="16.847" height="18.667" x="16.847" y="336" style="fill:#d7d7ff"/><rect width="960.26" height="18.667" x="33.693" y="336" style="fill:#ffffaf"/><rect width="16.847" height="18.667" x="993.953" y="336" style="fill:#d7d7ff"/><rect width="16.847" height="18.667" x="16.847" y="354.667" style="fill:#d7d7ff"/><rect width="960.26" height="18.667" x="33.693" y="354.667" style="fill:#ffffaf"/><rect width="16.847" height="18.667" x="993.953" y="354.667" style="fill:#d7d7ff"/><rect width="16.847" height="18.667" x="16.847" y="373.333" style="fill:#d7d7ff"/><rect width="960.26" height="18.667" x="33.693" y="373.333" style="fill:#ffffaf"/><rect width="16.847" height="18.667" x="993.953" y="373.333" style="fill:#d7d7ff"/><rect width="16.847" height="18.667" x="16.847" y="392" style="fill:#d7d7ff"/><rect width="960.26" height="18.667" x="33.693" y="392" style="fill:#ffffaf"/><rect width="16.847" height="18.667" x="993.953" y="392" style="fill:#d7d7ff"/><rect width="16.847" height="18.667" x="16.847" y="410.667" style="fill:#d7d7ff"/><rect width="960.26" height="18.667" x="33.693" y="410.667" style="fill:#ffffaf"/><rect width="16.847" height="18.667" x="993.953" y="410.667" style="fill:#d7d7ff"/><rect width="16.847" height="18.667" x="16.847" y="429.333" style="fill:#d7d7ff"/><rect width="960.26" height="18.667" x="33.693" y="429.333" style="fill:#ffffaf"/><rect width="16.847" height="18.667" x="993.953" y="429.333" style="fill:#d7d7ff"/><rect width="16.847" height="18.667" x="16.847" y="448" style="fill:#d7d7ff"/><rect width="960.26" height="18.667" x="33.693" y="448" style="fill:#ffffaf"/><rect width="16.847" height="18.667" x="993.953" y="448" style="fill:#d7d7ff"/><rect width="16.847" height="18.667" x="16.847" y="466.667" style="fill:#d7d7ff"/><rect width="960.26" height="18.667" x="33.693" y="466.667" style="fill:#ffffaf"/><rect width="16.847" height="18.667" x="993.953" y="466.667" style="fill:#d7d7ff"/><rect width="16.847" height="18.667" x="16.847" y="485.333" style="fill:#d7d7ff"/><rect width="960.26" height="18.667" x="33.693" y="485.333" style="fill:#ffffaf"/><rect width="16.847" height="18.667" x="993.953" y="485.333" style="fill:#d7d7ff"/><rect width="16.847" height="18.667" x="16.847" y="504" style="fill:#d7d7ff"/><rect width="960.26" height="18.667" x="33.693" y="504" style="fill:#ffffaf"/><rect width="16.847" height="18.667" x="993.953" y="504" style="fill:#d7d7ff"/><rect width="16.847" height="18.667" x="16.847" y="522.667" style="fill:#d7d7ff"/><rect width="960.26" height="18.667" x="33.693" y="522.667" style="fill:#ffffaf"/><rect width="16.847" height="18.667" x="993.953" y="522.667" style="fill:#d7d7ff"/><rect width="16.847" height="18.667" x="16.847" y="541.333" style="fill:#d7d7ff"/><rect width="960.26" height="18.667" x="33.693" y="541.333" style="fill:#ffffaf"/><rect width="16.847" height="18.667" x="993.953" y="541.333" style="fill:#d7d7ff"/><rect width="16.847" height="18.667" x="16.847" y="560" style="fill:#d7d7ff"/><rect width="960.26" height="18.667" x="33.693" y="560" style="fill:#ffffaf"/><rect width="16.847" height="18.667" x="993.953" y="560" style="fill:#d7d7ff"/><rect width="993.953" height="18.667" x="16.847" y="578.667" style="fill:#d7d7ff"/><rect width="993.953" height="18.667" x="16.847" y="597.333" style="fill:#d7d7ff"/><rect width="488.553" height="18.667" x="16.847" y="616" style="fill:#d7d7ff"/><rect width="58.963" height="18.667" x="505.4" y="616" style="fill:#d7d7ff"/><rect width="446.437" height="18.667" x="564.363" y="616" style="fill:#d7d7ff"/><rect width="993.953" height="18.667" x="16.847" y="634.667" style="fill:#d7d7ff"/></g><text style="fill:#ccc"><tspan y="18.667"><tspan x="0" dy="1em">For help, type &quot;help&quot;. </tspan> </tspan><tspan y="37.333"> <tspan x="0" dy="1em"> Type &quot;apropos word&quot; to search for commands related to &quot;word&quot;... </tspan> </tspan><tspan y="56"> <tspan x="0" dy="1em"> Reading symbols from </tspan><tspan x="176.89" style="fill:#4ebf22"> a.out </tspan><tspan x="219.007"> ... </tspan> </tspan><tspan y="74.667"> <tspan x="0" dy="1em"> (ChatDBG gdb) run </tspan> </tspan><tspan y="93.333"> <tspan x="0" dy="1em"> Starting program: </tspan><tspan x="151.62" style="fill:#4ebf22"> /home/steve/ChatDBG/samples/cpp/a.out </tspan> </tspan><tspan y="112"> <tspan x="0" dy="1em"> [Thread debugging using libthread_db enabled] </tspan> </tspan><tspan y="130.667"> <tspan x="0" dy="1em"> Using host libthread_db library &quot; </tspan><tspan x="277.97" style="fill:#4ebf22"> /lib/x86_64-linux-gnu/libthread_db.so.1 </tspan><tspan x="606.48"> &quot;. </tspan> </tspan><tspan y="149.333"> <tspan x="0" dy="1em"> TEST 1 </tspan> </tspan><tspan y="168"> <tspan x="0" dy="1em"> TEST 0 </tspan> </tspan><tspan y="186.667"> <tspan x="0" dy="1em"> TEST 0 </tspan> </tspan><tspan y="205.333"> <tspan x="0" dy="1em"> TEST 0 </tspan> </tspan><tspan y="242.667"> <tspan x="0" dy="1em"> Program received signal SIGSEGV, Segmentation fault. </tspan> </tspan><tspan y="261.333"> <tspan x="0" dy="1em" style="fill:#26b0d7"> 0x0000555555555213 </tspan><tspan x="160.043"> in </tspan><tspan x="185.313" style="fill:#ddaf3c"> foo </tspan><tspan x="219.007"> ( </tspan><tspan x="227.43" style="fill:#54e1b9"> n </tspan><tspan x="235.853"> =4, </tspan><tspan x="269.547" style="fill:#54e1b9"> b </tspan><tspan x="277.97"> =1) at </tspan><tspan x="336.933" style="fill:#4ebf22"> test-overflow.cpp </tspan><tspan x="480.13"> :7 </tspan> </tspan><tspan y="280"> <tspan x="0" dy="1em"> 7 </tspan><tspan x="84.233"> cout </tspan><tspan x="126.35" style="fill:#dd3c69"> &lt;&lt; </tspan><tspan x="151.62" style="fill:#dd3c69"> &quot;TEST &quot; </tspan><tspan x="219.007" style="fill:#dd3c69"> &lt;&lt; </tspan><tspan x="244.277"> x </tspan><tspan x="252.7" style="fill:#dd3c69"> [ </tspan><tspan x="261.123"> n </tspan><tspan x="277.97" style="fill:#dd3c69"> * </tspan><tspan x="294.817" style="fill:#b954e1"> 10000 </tspan><tspan x="336.933" style="fill:#dd3c69"> ] </tspan><tspan x="353.78" style="fill:#dd3c69"> &lt;&lt; </tspan><tspan x="379.05"> endl </tspan><tspan x="412.743" style="fill:#dd3c69"> ; </tspan> </tspan><tspan y="298.667"> <tspan x="0" dy="1em"> (ChatDBG gdb) why? </tspan> </tspan><tspan y="354.667"> <tspan x="58.963" class="br" dy="1em" style="fill:#1c1c1c"> (ChatDBG gdb) code test-overflow.cpp:7 </tspan> </tspan><tspan y="373.333"> <tspan x="67.387" dy="1em" style="fill:#585858"> 1 #include &lt;iostream&gt; </tspan> </tspan><tspan y="392"> <tspan x="67.387" dy="1em" style="fill:#585858"> 2 using namespace std; </tspan> </tspan><tspan y="410.667"> <tspan x="67.387" dy="1em" style="fill:#585858"> 3 </tspan> </tspan><tspan y="429.333"> <tspan x="67.387" dy="1em" style="fill:#585858"> 4 int x[] = { 1, 2, 3, 4, 5 }; </tspan> </tspan><tspan y="448"> <tspan x="67.387" dy="1em" style="fill:#585858"> 5 </tspan> </tspan><tspan y="466.667"> <tspan x="67.387" dy="1em" style="fill:#585858"> 6 void foo(int n, float b) { </tspan> </tspan><tspan y="485.333"> <tspan x="67.387" dy="1em" style="fill:#585858"> 7 </tspan><tspan x="101.08" style="fill:#585858"> cout &lt;&lt; &quot;TEST &quot; &lt;&lt; x[n * 10000] &lt;&lt; endl; </tspan> </tspan><tspan y="504"> <tspan x="67.387" dy="1em" style="fill:#585858"> 8 } </tspan> </tspan><tspan y="522.667"> <tspan x="67.387" dy="1em" style="fill:#585858"> 9 </tspan> </tspan><tspan y="541.333"> <tspan x="58.963" dy="1em" style="fill:#585858"> 10 int main() </tspan> </tspan><tspan y="616"> <tspan x="33.693" dy="1em" style="fill:#000"> The stack trace shows that the program crashed due to a </tspan><tspan x="505.4" style="fill:#26b0d7"> SIGSEGV </tspan><tspan x="572.787" style="fill:#000"> (segmentation fault), which</tspan></tspan></text></svg><g transform="translate(-50 -50)"><svg width="100" height="100" x="50%" y="50%"><svg xmlns="http://www.w3.org/2000/svg" version="1.1" viewBox="0 0 866.025 866.025" style="filter:drop-shadow(0 0 5px rgba(0,0,0,.4))"><defs><mask id="small-triangle-mask"><rect width="100%" height="100%" fill="#fff"/><polygon fill="#000" points="508.013 433.013 208.013 259.808 208.013 606.218"/></mask></defs><polygon fill="#fff" points="808.013 433.013 58.013 0 58.013 866.025" mask="url(#small-triangle-mask)"/><polyline stroke="#fff" stroke-width="90" points="481.218 333.013 134.808 533.013"/></svg></svg></g></svg>