<svg xmlns="http://www.w3.org/2000/svg" xmlns:xlink="http://www.w3.org/1999/xlink" width="1027.647" height="672" font-family="Consolas, Menlo, 'Bitstream Vera Sans Mono', monospace, 'Powerline Symbols'" font-size="14"><style>.fa{fill-opacity:.5}.un{text-decoration:underline}</style><rect width="100%" height="100%" style="fill:#121314" rx="4" ry="4"/><svg x="8.423" y="9.333" class="default-text-fill"><g style="shape-rendering:optimizeSpeed"><rect width="993.953" height="18.667" x="16.847" y="317.333" style="fill:#d7d7ff"/><rect width="993.953" height="18.667" x="16.847" y="336" style="fill:#d7d7ff"/><rect width="993.953" height="18.667" x="16.847" y="354.667" style="fill:#d7d7ff"/><rect width="993.953" height="18.667" x="16.847" y="373.333" style="fill:#d7d7ff"/><rect width="993.953" height="18.667" x="16.847" y="392" style="fill:#d7d7ff"/><rect width="219.007" height="18.667" x="16.847" y="410.667" style="fill:#d7d7ff"/><rect width="25.27" height="18.667" x="235.853" y="410.667" style="fill:#d7d7ff"/><rect width="547.517" height="18.667" x="261.123" y="410.667" style="fill:#d7d7ff"/><rect width="8.423" height="18.667" x="808.64" y="410.667" style="fill:#d7d7ff"/><rect width="134.773" height="18.667" x="817.063" y="410.667" style="fill:#d7d7ff"/><rect width="33.693" height="18.667" x="951.837" y="410.667" style="fill:#d7d7ff"/><rect width="25.27" height="18.667" x="985.53" y="410.667" style="fill:#d7d7ff"/><rect width="16.847" height="18.667" x="16.847" y="429.333" style="fill:#d7d7ff"/><rect width="42.117" height="18.667" x="33.693" y="429.333" style="fill:#d7d7ff"/><rect width="934.99" height="18.667" x="75.81" y="429.333" style="fill:#d7d7ff"/><rect width="993.953" height="18.667" x="16.847" y="448" style="fill:#d7d7ff"/><rect width="16.847" height="18.667" x="16.847" y="466.667" style="fill:#d7d7ff"/><rect width="960.26" height="18.667" x="33.693" y="466.667" style="fill:#eee"/><rect width="16.847" height="18.667" x="993.953" y="466.667" style="fill:#d7d7ff"/><rect width="16.847" height="18.667" x="16.847" y="485.333" style="fill:#d7d7ff"/><rect width="8.423" height="18.667" x="33.693" y="485.333" style="fill:#eee"/><rect width="8.423" height="18.667" x="42.117" y="485.333" style="fill:#eee"/><rect width="25.27" height="18.667" x="50.54" y="485.333" style="fill:#eee"/><rect width="33.693" height="18.667" x="75.81" y="485.333" style="fill:#eee"/><rect width="8.423" height="18.667" x="109.503" y="485.333" style="fill:#eee"/><rect width="16.847" height="18.667" x="117.927" y="485.333" style="fill:#eee"/><rect width="8.423" height="18.667" x="134.773" y="485.333" style="fill:#eee"/><rect width="58.963" height="18.667" x="143.197" y="485.333" style="fill:#eee"/><rect width="8.423" height="18.667" x="202.16" y="485.333" style="fill:#eee"/><rect width="16.847" height="18.667" x="210.583" y="485.333" style="fill:#eee"/><rect width="8.423" height="18.667" x="227.43" y="485.333" style="fill:#eee"/><rect width="25.27" height="18.667" x="235.853" y="485.333" style="fill:#eee"/><rect width="8.423" height="18.667" x="261.123" y="485.333" style="fill:#eee"/><rect width="8.423" height="18.667" x="269.547" y="485.333" style="fill:#eee"/><rect width="8.423" height="18.667" x="277.97" y="485.333" style="fill:#eee"/><rect width="42.117" height="18.667" x="286.393" y="485.333" style="fill:#eee"/><rect width="8.423" height="18.667" x="328.51" y="485.333" style="fill:#eee"/><rect width="8.423" height="18.667" x="336.933" y="485.333" style="fill:#eee"/><rect width="16.847" height="18.667" x="345.357" y="485.333" style="fill:#eee"/><rect width="8.423" height="18.667" x="362.203" y="485.333" style="fill:#eee"/><rect width="42.117" height="18.667" x="370.627" y="485.333" style="fill:#eee"/><rect width="581.21" height="18.667" x="412.743" y="485.333" style="fill:#eee"/><rect width="16.847" height="18.667" x="993.953" y="485.333" style="fill:#d7d7ff"/><rect width="16.847" height="18.667" x="16.847" y="504" style="fill:#d7d7ff"/><rect width="960.26" height="18.667" x="33.693" y="504" style="fill:#eee"/><rect width="16.847" height="18.667" x="993.953" y="504" style="fill:#d7d7ff"/><rect width="993.953" height="18.667" x="16.847" y="522.667" style="fill:#d7d7ff"/><rect width="101.08" height="18.667" x="16.847" y="541.333" style="fill:#d7d7ff"/><rect width="8.423" height="18.667" x="117.927" y="541.333" style="fill:#d7d7ff"/><rect width="884.45" height="18.667" x="126.35" y="541.333" style="fill:#d7d7ff"/><rect width="993.953" height="18.667" x="16.847" y="560" style="fill:#d7d7ff"/><rect width="16.847" height="18.667" x="16.847" y="578.667" style="fill:#d7d7ff"/><rect width="960.26" height="18.667" x="33.693" y="578.667" style="fill:#eee"/><rect width="16.847" height="18.667" x="993.953" y="578.667" style="fill:#d7d7ff"/><rect width="16.847" height="18.667" x="16.847" y="597.333" style="fill:#d7d7ff"/><rect width="8.423" height="18.667" x="33.693" y="597.333" style="fill:#eee"/><rect width="8.423" height="18.667" x="42.117" y="597.333" style="fill:#eee"/><rect width="8.423" height="18.667" x="50.54" y="597.333" style="fill:#eee"/><rect width="25.27" height="18.667" x="58.963" y="597.333" style="fill:#eee"/><rect width="8.423" height="18.667" x="84.233" y="597.333" style="fill:#eee"/><rect width="25.27" height="18.667" x="92.657" y="597.333" style="fill:#eee"/><rect width="8.423" height="18.667" x="117.927" y="597.333" style="fill:#eee"/><rect width="8.423" height="18.667" x="126.35" y="597.333" style="fill:#eee"/><rect width="8.423" height="18.667" x="134.773" y="597.333" style="fill:#eee"/><rect width="8.423" height="18.667" x="143.197" y="597.333" style="fill:#eee"/><rect width="8.423" height="18.667" x="151.62" y="597.333" style="fill:#eee"/><rect width="8.423" height="18.667" x="160.043" y="597.333" style="fill:#eee"/><rect width="8.423" height="18.667" x="168.467" y="597.333" style="fill:#eee"/><rect width="817.063" height="18.667" x="176.89" y="597.333" style="fill:#eee"/><rect width="16.847" height="18.667" x="993.953" y="597.333" style="fill:#d7d7ff"/><rect width="16.847" height="18.667" x="16.847" y="616" style="fill:#d7d7ff"/><rect width="960.26" height="18.667" x="33.693" y="616" style="fill:#eee"/><rect width="16.847" height="18.667" x="993.953" y="616" style="fill:#d7d7ff"/><rect width="993.953" height="18.667" x="16.847" y="634.667" style="fill:#d7d7ff"/></g><text style="fill:#ccc"><tspan y="0"><tspan x="0" class="fa" dy="1em">(ChatDBG lldb) </tspan><tspan x="126.35"> run </tspan> </tspan><tspan y="18.667"> <tspan x="0" dy="1em"> Process 23558 launched: &apos;/home/steve/ChatDBG/samples/cpp/a.out&apos; (x86_64) </tspan> </tspan><tspan y="37.333"> <tspan x="0" dy="1em"> TEST 1 </tspan> </tspan><tspan y="56"> <tspan x="0" dy="1em"> TEST 0 </tspan> </tspan><tspan y="74.667"> <tspan x="0" dy="1em"> TEST 0 </tspan> </tspan><tspan y="93.333"> <tspan x="0" dy="1em"> TEST 0 </tspan> </tspan><tspan y="112"> <tspan x="0" dy="1em"> Process 23558 stopped </tspan> </tspan><tspan y="130.667"> <tspan x="0" dy="1em"> * thread #1, name = &apos;a.out&apos;, stop reason = </tspan><tspan x="362.203" style="fill:#dd3c69"> signal SIGSEGV: address not mapped to object (fault address: 0x55555557f110) </tspan> </tspan><tspan y="149.333"> <tspan x="33.693" dy="1em"> frame #0: </tspan><tspan x="117.927" style="fill:#ddaf3c"> 0x0000555555555213 </tspan><tspan x="277.97"> a.out`foo(n=4, b=1) at </tspan><tspan x="471.707" style="fill:#54e1b9"> test-overflow.cpp </tspan><tspan x="614.903"> : </tspan><tspan x="623.327" style="fill:#ddaf3c"> 7 </tspan><tspan x="631.75"> : </tspan><tspan x="640.173" style="fill:#ddaf3c"> 33 </tspan> </tspan><tspan y="168"> <tspan x="25.27" dy="1em"> 4 </tspan><tspan x="67.387" style="fill:#4ebf22"> int </tspan><tspan x="101.08"> x[] = { </tspan><tspan x="168.467" style="fill:#dd3c69"> 1 </tspan><tspan x="176.89"> , </tspan><tspan x="193.737" style="fill:#dd3c69"> 2 </tspan><tspan x="202.16"> , </tspan><tspan x="219.007" style="fill:#dd3c69"> 3 </tspan><tspan x="227.43"> , </tspan><tspan x="244.277" style="fill:#dd3c69"> 4 </tspan><tspan x="252.7"> , </tspan><tspan x="269.547" style="fill:#dd3c69"> 5 </tspan><tspan x="286.393"> }; </tspan> </tspan><tspan y="186.667"> <tspan x="25.27" dy="1em"> 5 </tspan> </tspan><tspan y="205.333"> <tspan x="25.27" dy="1em"> 6 </tspan><tspan x="67.387" style="fill:#4ebf22"> void </tspan><tspan x="109.503"> foo( </tspan><tspan x="143.197" style="fill:#4ebf22"> int </tspan><tspan x="176.89"> n, </tspan><tspan x="202.16" style="fill:#4ebf22"> float </tspan><tspan x="252.7"> b) { </tspan> </tspan><tspan y="224"> <tspan x="0" dy="1em" style="fill:#ddaf3c"> -&gt; </tspan><tspan x="25.27"> 7 </tspan><tspan x="84.233"> cout &lt;&lt; &quot;TEST &quot; &lt;&lt; x[n * </tspan><tspan x="294.817" style="fill:#dd3c69"> 10000 </tspan><tspan x="336.933" class="un"> ] </tspan><tspan x="353.78"> &lt;&lt; endl; </tspan> </tspan><tspan y="242.667"> <tspan x="25.27" dy="1em"> 8 </tspan><tspan x="67.387"> } </tspan> </tspan><tspan y="261.333"> <tspan x="25.27" dy="1em"> 9 </tspan> </tspan><tspan y="280"> <tspan x="25.27" dy="1em"> 10 </tspan><tspan x="67.387" style="fill:#4ebf22"> int </tspan><tspan x="101.08"> main() </tspan> </tspan><tspan y="298.667"> <tspan x="0" class="fa" dy="1em"> (ChatDBG lldb) </tspan><tspan x="126.35"> why </tspan> </tspan><tspan y="336"> <tspan x="33.693" dy="1em" style="fill:#000"> The SIGSEGV (segmentation fault) signal indicates that the program attempted to access memory that it&apos;s not </tspan> </tspan><tspan y="354.667"> <tspan x="33.693" dy="1em" style="fill:#000"> allowed to. Examining the provided stack trace and the corresponding source code reveals the potential cause of </tspan> </tspan><tspan y="373.333"> <tspan x="33.693" dy="1em" style="fill:#000"> the segmentation fault. </tspan> </tspan><tspan y="410.667"> <tspan x="33.693" dy="1em" style="fill:#000"> In frame #0, within the </tspan><tspan x="235.853" style="fill:#26b0d7"> foo </tspan><tspan x="269.547" style="fill:#000"> function, there is an attempt to access an element of the array </tspan><tspan x="808.64" style="fill:#26b0d7"> x </tspan><tspan x="825.487" style="fill:#000"> using an index </tspan><tspan x="951.837" style="fill:#26b0d7"> n * </tspan> </tspan><tspan y="429.333"> <tspan x="33.693" dy="1em" style="fill:#26b0d7"> 10000 </tspan><tspan x="75.81" style="fill:#000"> : </tspan> </tspan><tspan y="485.333"> <tspan x="42.117" dy="1em" style="fill:#626262"> 7 </tspan><tspan x="75.81" style="fill:#000"> cout </tspan><tspan x="117.927" style="fill:#626262"> &lt;&lt; </tspan><tspan x="143.197" style="fill:#af0000"> &quot;TEST &quot; </tspan><tspan x="210.583" style="fill:#626262"> &lt;&lt; </tspan><tspan x="235.853" style="fill:#000"> x[n </tspan><tspan x="269.547" style="fill:#626262"> * </tspan><tspan x="286.393" style="fill:#626262"> 10000 </tspan><tspan x="328.51" style="fill:#000"> ] </tspan><tspan x="345.357" style="fill:#626262"> &lt;&lt; </tspan><tspan x="370.627" style="fill:#000"> endl; </tspan> </tspan><tspan y="541.333"> <tspan x="33.693" dy="1em" style="fill:#000"> The array </tspan><tspan x="117.927" style="fill:#26b0d7"> x </tspan><tspan x="134.773" style="fill:#000"> is defined with only 5 elements: </tspan> </tspan><tspan y="597.333"> <tspan x="42.117" dy="1em" style="fill:#626262"> 4 </tspan><tspan x="58.963" style="fill:#af005f"> int </tspan><tspan x="92.657" style="fill:#000"> x[] </tspan><tspan x="126.35" style="fill:#626262"> = </tspan><tspan x="143.197" style="fill:#000"> { </tspan><tspan x="160.043" style="fill:#626262"> 1 </tspan><tspan x="168.467" style="fill:#000"> ,</tspan></tspan></text></svg><g transform="translate(-50 -50)"><svg width="100" height="100" x="50%" y="50%"><svg xmlns="http://www.w3.org/2000/svg" version="1.1" viewBox="0 0 866.025 866.025" style="filter:drop-shadow(0 0 5px rgba(0,0,0,.4))"><defs><mask id="small-triangle-mask"><rect width="100%" height="100%" fill="#fff"/><polygon fill="#000" points="508.013 433.013 208.013 259.808 208.013 606.218"/></mask></defs><polygon fill="#fff" points="808.013 433.013 58.013 0 58.013 866.025" mask="url(#small-triangle-mask)"/><polyline stroke="#fff" stroke-width="90" points="481.218 333.013 134.808 533.013"/></svg></svg></g></svg>