<svg xmlns="http://www.w3.org/2000/svg" xmlns:xlink="http://www.w3.org/1999/xlink" width="1027.647" height="672" font-family="Consolas, Menlo, 'Bitstream Vera Sans Mono', monospace, 'Powerline Symbols'" font-size="14"><style>.br{font-weight:700}</style><rect width="100%" height="100%" style="fill:#121314" rx="4" ry="4"/><svg x="8.423" y="9.333" class="default-text-fill"><g style="shape-rendering:optimizeSpeed"><rect width="993.953" height="18.667" x="16.847" y="410.667" style="fill:#d7d7ff"/><rect width="16.847" height="18.667" x="16.847" y="429.333" style="fill:#d7d7ff"/><rect width="960.26" height="18.667" x="33.693" y="429.333" style="fill:#ffffaf"/><rect width="16.847" height="18.667" x="993.953" y="429.333" style="fill:#d7d7ff"/><rect width="16.847" height="18.667" x="16.847" y="448" style="fill:#d7d7ff"/><rect width="960.26" height="18.667" x="33.693" y="448" style="fill:#ffffaf"/><rect width="16.847" height="18.667" x="993.953" y="448" style="fill:#d7d7ff"/><rect width="16.847" height="18.667" x="16.847" y="466.667" style="fill:#d7d7ff"/><rect width="960.26" height="18.667" x="33.693" y="466.667" style="fill:#ffffaf"/><rect width="16.847" height="18.667" x="993.953" y="466.667" style="fill:#d7d7ff"/><rect width="16.847" height="18.667" x="16.847" y="485.333" style="fill:#d7d7ff"/><rect width="960.26" height="18.667" x="33.693" y="485.333" style="fill:#ffffaf"/><rect width="16.847" height="18.667" x="993.953" y="485.333" style="fill:#d7d7ff"/><rect width="993.953" height="18.667" x="16.847" y="504" style="fill:#d7d7ff"/><rect width="993.953" height="18.667" x="16.847" y="522.667" style="fill:#d7d7ff"/><rect width="16.847" height="18.667" x="16.847" y="541.333" style="fill:#d7d7ff"/><rect width="960.26" height="18.667" x="33.693" y="541.333" style="fill:#ffffaf"/><rect width="16.847" height="18.667" x="993.953" y="541.333" style="fill:#d7d7ff"/><rect width="16.847" height="18.667" x="16.847" y="560" style="fill:#d7d7ff"/><rect width="960.26" height="18.667" x="33.693" y="560" style="fill:#ffffaf"/><rect width="16.847" height="18.667" x="993.953" y="560" style="fill:#d7d7ff"/><rect width="16.847" height="18.667" x="16.847" y="578.667" style="fill:#d7d7ff"/><rect width="960.26" height="18.667" x="33.693" y="578.667" style="fill:#ffffaf"/><rect width="16.847" height="18.667" x="993.953" y="578.667" style="fill:#d7d7ff"/><rect width="16.847" height="18.667" x="16.847" y="597.333" style="fill:#d7d7ff"/><rect width="960.26" height="18.667" x="33.693" y="597.333" style="fill:#ffffaf"/><rect width="16.847" height="18.667" x="993.953" y="597.333" style="fill:#d7d7ff"/><rect width="993.953" height="18.667" x="16.847" y="616" style="fill:#d7d7ff"/><rect width="8.423" height="18.667" x="0" y="634.667" style="fill:#d9d9d9"/></g><text style="fill:#ccc"><tspan y="0"><tspan x="33.693" dy="1em">exec(cmd, globals, locals) </tspan> </tspan><tspan y="18.667"> <tspan x="16.847" dy="1em"> File &quot;&lt;string&gt;&quot;, line 1, in &lt;module&gt; </tspan> </tspan><tspan y="37.333"> <tspan x="16.847" dy="1em"> File &quot;/home/steve/ChatDBG/samples/python/bootstrap.py&quot;, line 19, in &lt;module&gt; </tspan> </tspan><tspan y="56"> <tspan x="33.693" dy="1em"> stats = resampled_stats(observed_marbles, 5) </tspan> </tspan><tspan y="74.667"> <tspan x="16.847" dy="1em"> File &quot;/home/steve/ChatDBG/samples/python/bootstrap.py&quot;, line 15, in resampled_stats </tspan> </tspan><tspan y="93.333"> <tspan x="33.693" dy="1em"> assert len(stats) == num_trials </tspan> </tspan><tspan y="112"> <tspan x="0" dy="1em"> AssertionError </tspan> </tspan><tspan y="130.667"> <tspan x="0" dy="1em"> Uncaught exception. Entering post mortem debugging </tspan> </tspan><tspan y="149.333"> <tspan x="0" dy="1em"> Running &apos;cont&apos; or &apos;step&apos; will restart the program </tspan> </tspan><tspan y="168"> <tspan x="0" dy="1em"> &gt; </tspan><tspan x="16.847" style="fill:#4ebf22"> /home/steve/ChatDBG/samples/python/bootstrap.py </tspan><tspan x="412.743"> (15) </tspan><tspan x="446.437" style="fill:#54e1b9"> resampled_stats </tspan><tspan x="572.787" style="fill:#26b0d7"> () </tspan> </tspan><tspan y="186.667"> <tspan x="42.117" dy="1em" style="fill:#4ebf22"> 10 </tspan> </tspan><tspan y="205.333"> <tspan x="42.117" dy="1em" style="fill:#4ebf22"> 11 def </tspan><tspan x="101.08"> resampled_stats </tspan><tspan x="227.43" style="fill:#26b0d7"> ( </tspan><tspan x="235.853"> observed_marbles </tspan><tspan x="370.627" style="fill:#26b0d7"> , </tspan><tspan x="387.473"> num_trials </tspan><tspan x="471.707" style="fill:#26b0d7"> ): </tspan> </tspan><tspan y="224"> <tspan x="42.117" dy="1em" style="fill:#4ebf22"> 12 </tspan><tspan x="101.08" style="fill:#dd3c69"> stats = bootstrap_statistic(observed_marbles, </tspan> </tspan><tspan y="242.667"> <tspan x="42.117" dy="1em" style="fill:#4ebf22"> 13 </tspan><tspan x="336.933"> proportion_blue </tspan><tspan x="463.283" style="fill:#26b0d7"> , </tspan> </tspan><tspan y="261.333"> <tspan x="42.117" dy="1em" style="fill:#4ebf22"> 14 </tspan><tspan x="336.933" style="fill:#dd3c69"> num_trials) </tspan> </tspan><tspan y="280"> <tspan x="0" dy="1em" style="fill:#4ebf22"> ---&gt; 15 </tspan><tspan x="101.08" style="fill:#4ebf22"> assert </tspan><tspan x="160.043"> len </tspan><tspan x="185.313" style="fill:#26b0d7"> ( </tspan><tspan x="193.737"> stats </tspan><tspan x="235.853" style="fill:#26b0d7"> ) </tspan><tspan x="252.7" style="fill:#26b0d7"> == </tspan><tspan x="277.97"> num_trials </tspan> </tspan><tspan y="298.667"> <tspan x="42.117" dy="1em" style="fill:#4ebf22"> 16 </tspan><tspan x="101.08" style="fill:#4ebf22"> return </tspan><tspan x="160.043"> stats </tspan> </tspan><tspan y="317.333"> <tspan x="42.117" dy="1em" style="fill:#4ebf22"> 17 </tspan> </tspan><tspan y="336"> <tspan x="42.117" dy="1em" style="fill:#4ebf22"> 18 </tspan><tspan x="67.387"> observed_marbles </tspan><tspan x="210.583" style="fill:#26b0d7"> = </tspan><tspan x="227.43"> make_marble_sample </tspan><tspan x="379.05" style="fill:#26b0d7"> () </tspan> </tspan><tspan y="354.667"> <tspan x="42.117" dy="1em" style="fill:#4ebf22"> 19 </tspan><tspan x="67.387"> stats </tspan><tspan x="117.927" style="fill:#26b0d7"> = </tspan><tspan x="134.773"> resampled_stats </tspan><tspan x="261.123" style="fill:#26b0d7"> ( </tspan><tspan x="269.547"> observed_marbles </tspan><tspan x="404.32" style="fill:#26b0d7"> , </tspan><tspan x="421.167" style="fill:#54e1b9"> 5 </tspan><tspan x="429.59" style="fill:#26b0d7"> ) </tspan> </tspan><tspan y="392"> <tspan x="0" dy="1em" style="fill:#4ebf22"> (ChatDBG) </tspan><tspan x="84.233"> why </tspan> </tspan><tspan y="448"> <tspan x="58.963" class="br" dy="1em" style="fill:#1c1c1c"> (ChatDBG) p proportion_blue </tspan> </tspan><tspan y="466.667"> <tspan x="58.963" dy="1em" style="fill:#585858"> &lt;function proportion_blue at 0x7f5655935480&gt; </tspan> </tspan><tspan y="560"> <tspan x="58.963" class="br" dy="1em" style="fill:#1c1c1c"> (ChatDBG) p bootstrap_statistic </tspan> </tspan><tspan y="578.667"> <tspan x="58.963" dy="1em" style="fill:#585858"> &lt;function bootstrap_statistic at 0x7f5655e26440&gt;</tspan></tspan></text></svg><g transform="translate(-50 -50)"><svg width="100" height="100" x="50%" y="50%"><svg xmlns="http://www.w3.org/2000/svg" version="1.1" viewBox="0 0 866.025 866.025" style="filter:drop-shadow(0 0 5px rgba(0,0,0,.4))"><defs><mask id="small-triangle-mask"><rect width="100%" height="100%" fill="#fff"/><polygon fill="#000" points="508.013 433.013 208.013 259.808 208.013 606.218"/></mask></defs><polygon fill="#fff" points="808.013 433.013 58.013 0 58.013 866.025" mask="url(#small-triangle-mask)"/><polyline stroke="#fff" stroke-width="90" points="481.218 333.013 134.808 533.013"/></svg></svg></g></svg>